<svg xmlns="http://www.w3.org/2000/svg" width="960" height="300" viewBox="0 0 960 300" font-family="-apple-system, 'Helvetica Neue', Arial, sans-serif"><rect width="960" height="300" fill="#fcfcfb" rx="8"/><text x="20" y="30" font-size="15" fill="#0b0b0b" text-anchor="start" font-weight="600" >Idle behaviour over a 40-second run (release build, desktop taken over, no interaction)</text><text x="70" y="58" font-size="13" fill="#52514e" text-anchor="start" font-weight="normal" >Cumulative CPU time (seconds): flat means the app did no work</text><line x1="70" y1="250.0" x2="490" y2="250.0" stroke="#e6e5e1" stroke-width="1"/><text x="64" y="254.0" font-size="11" fill="#52514e" text-anchor="end" font-weight="normal" >0.00</text><line x1="70" y1="190.0" x2="490" y2="190.0" stroke="#e6e5e1" stroke-width="1"/><text x="64" y="194.0" font-size="11" fill="#52514e" text-anchor="end" font-weight="normal" >0.33</text><line x1="70" y1="130.0" x2="490" y2="130.0" stroke="#e6e5e1" stroke-width="1"/><text x="64" y="134.0" font-size="11" fill="#52514e" text-anchor="end" font-weight="normal" >0.67</text><line x1="70" y1="70.0" x2="490" y2="70.0" stroke="#e6e5e1" stroke-width="1"/><text x="64" y="74.0" font-size="11" fill="#52514e" text-anchor="end" font-weight="normal" >1.00</text><polyline points="122.5,210.4 227.5,210.4 332.5,210.4 437.5,210.4 479.5,210.4" fill="none" stroke="#2a78d6" stroke-width="2" stroke-linejoin="round" stroke-linecap="round"/><circle cx="122.5" cy="210.4" r="6" fill="#fcfcfb"/><circle cx="122.5" cy="210.4" r="4" fill="#2a78d6"/><circle cx="227.5" cy="210.4" r="6" fill="#fcfcfb"/><circle cx="227.5" cy="210.4" r="4" fill="#2a78d6"/><circle cx="332.5" cy="210.4" r="6" fill="#fcfcfb"/><circle cx="332.5" cy="210.4" r="4" fill="#2a78d6"/><circle cx="437.5" cy="210.4" r="6" fill="#fcfcfb"/><circle cx="437.5" cy="210.4" r="4" fill="#2a78d6"/><circle cx="479.5" cy="210.4" r="6" fill="#fcfcfb"/><circle cx="479.5" cy="210.4" r="4" fill="#2a78d6"/><text x="70.0" y="268" font-size="11" fill="#52514e" text-anchor="middle" font-weight="normal" >0s</text><text x="175.0" y="268" font-size="11" fill="#52514e" text-anchor="middle" font-weight="normal" >10s</text><text x="280.0" y="268" font-size="11" fill="#52514e" text-anchor="middle" font-weight="normal" >20s</text><text x="385.0" y="268" font-size="11" fill="#52514e" text-anchor="middle" font-weight="normal" >30s</text><text x="490.0" y="268" font-size="11" fill="#52514e" text-anchor="middle" font-weight="normal" >40s</text><text x="471.5" y="198.4" font-size="12" fill="#0b0b0b" text-anchor="end" font-weight="600" >0.22 s</text><text x="530" y="58" font-size="13" fill="#52514e" text-anchor="start" font-weight="normal" >Resident memory (MB)</text><line x1="530" y1="250.0" x2="950" y2="250.0" stroke="#e6e5e1" stroke-width="1"/><text x="524" y="254.0" font-size="11" fill="#52514e" text-anchor="end" font-weight="normal" >60</text><line x1="530" y1="190.0" x2="950" y2="190.0" stroke="#e6e5e1" stroke-width="1"/><text x="524" y="194.0" font-size="11" fill="#52514e" text-anchor="end" font-weight="normal" >70</text><line x1="530" y1="130.0" x2="950" y2="130.0" stroke="#e6e5e1" stroke-width="1"/><text x="524" y="134.0" font-size="11" fill="#52514e" text-anchor="end" font-weight="normal" >80</text><line x1="530" y1="70.0" x2="950" y2="70.0" stroke="#e6e5e1" stroke-width="1"/><text x="524" y="74.0" font-size="11" fill="#52514e" text-anchor="end" font-weight="normal" >90</text><polyline points="582.5,158.8 687.5,160.6 792.5,161.2 897.5,161.2 939.5,161.2" fill="none" stroke="#eb6834" stroke-width="2" stroke-linejoin="round" stroke-linecap="round"/><circle cx="582.5" cy="158.8" r="6" fill="#fcfcfb"/><circle cx="582.5" cy="158.8" r="4" fill="#eb6834"/><circle cx="687.5" cy="160.6" r="6" fill="#fcfcfb"/><circle cx="687.5" cy="160.6" r="4" fill="#eb6834"/><circle cx="792.5" cy="161.2" r="6" fill="#fcfcfb"/><circle cx="792.5" cy="161.2" r="4" fill="#eb6834"/><circle cx="897.5" cy="161.2" r="6" fill="#fcfcfb"/><circle cx="897.5" cy="161.2" r="4" fill="#eb6834"/><circle cx="939.5" cy="161.2" r="6" fill="#fcfcfb"/><circle cx="939.5" cy="161.2" r="4" fill="#eb6834"/><text x="530.0" y="268" font-size="11" fill="#52514e" text-anchor="middle" font-weight="normal" >0s</text><text x="635.0" y="268" font-size="11" fill="#52514e" text-anchor="middle" font-weight="normal" >10s</text><text x="740.0" y="268" font-size="11" fill="#52514e" text-anchor="middle" font-weight="normal" >20s</text><text x="845.0" y="268" font-size="11" fill="#52514e" text-anchor="middle" font-weight="normal" >30s</text><text x="950.0" y="268" font-size="11" fill="#52514e" text-anchor="middle" font-weight="normal" >40s</text><text x="931.5" y="149.20000000000002" font-size="12" fill="#0b0b0b" text-anchor="end" font-weight="600" >75 MB</text><text x="20" y="285" font-size="12" fill="#52514e" text-anchor="start" font-weight="normal" >Samples from ps every 10 s. Source: docs/FEASIBILITY.md E12; reproduce with scripts/measure-idle.sh.</text></svg>