<svg xmlns="http://www.w3.org/2000/svg" width="960" height="330" viewBox="0 0 960 330" font-family="-apple-system, 'Helvetica Neue', Arial, sans-serif"><rect width="960" height="330" fill="#fcfcfb" rx="8"/><text x="20" y="30" font-size="15" fill="#0b0b0b" text-anchor="start" font-weight="600" >The five agent workflows: how much work each one was</text><text x="200" y="58" font-size="13" fill="#52514e" text-anchor="start" font-weight="normal" >Agents</text><text x="190" y="87" font-size="12" fill="#0b0b0b" text-anchor="end" font-weight="normal" >Feasibility research</text><path d="M200,72 h188 a4,4 0 0 1 4,4 v12 a4,4 0 0 1 -4,4 h-188 z" fill="#2a78d6"/><text x="400" y="87" font-size="12" fill="#0b0b0b" text-anchor="start" font-weight="normal" >16</text><text x="190" y="123" font-size="12" fill="#0b0b0b" text-anchor="end" font-weight="normal" >Module implementation</text><path d="M200,108 h128 a4,4 0 0 1 4,4 v12 a4,4 0 0 1 -4,4 h-128 z" fill="#2a78d6"/><text x="340" y="123" font-size="12" fill="#0b0b0b" text-anchor="start" font-weight="normal" >11</text><text x="190" y="159" font-size="12" fill="#0b0b0b" text-anchor="end" font-weight="normal" >Code review (5 lenses)</text><path d="M200,144 h212 a4,4 0 0 1 4,4 v12 a4,4 0 0 1 -4,4 h-212 z" fill="#2a78d6"/><text x="424" y="159" font-size="12" fill="#0b0b0b" text-anchor="start" font-weight="normal" >18</text><text x="190" y="195" font-size="12" fill="#0b0b0b" text-anchor="end" font-weight="normal" >Code review (integration)</text><path d="M200,180 h44 a4,4 0 0 1 4,4 v12 a4,4 0 0 1 -4,4 h-44 z" fill="#2a78d6"/><text x="256" y="195" font-size="12" fill="#0b0b0b" text-anchor="start" font-weight="normal" >4</text><text x="190" y="231" font-size="12" fill="#0b0b0b" text-anchor="end" font-weight="normal" >Evidence documentation</text><path d="M200,216 h92 a4,4 0 0 1 4,4 v12 a4,4 0 0 1 -4,4 h-92 z" fill="#2a78d6"/><text x="304" y="231" font-size="12" fill="#0b0b0b" text-anchor="start" font-weight="normal" >8</text><text x="680" y="58" font-size="13" fill="#52514e" text-anchor="start" font-weight="normal" >Tokens (millions)</text><text x="670" y="87" font-size="12" fill="#0b0b0b" text-anchor="end" font-weight="normal" >Feasibility research</text><path d="M680,72 h201.2 a4,4 0 0 1 4,4 v12 a4,4 0 0 1 -4,4 h-201.2 z" fill="#eb6834"/><text x="893.2" y="87" font-size="12" fill="#0b0b0b" text-anchor="start" font-weight="normal" >2.28 M</text><text x="670" y="123" font-size="12" fill="#0b0b0b" text-anchor="end" font-weight="normal" >Module implementation</text><path d="M680,108 h129.2 a4,4 0 0 1 4,4 v12 a4,4 0 0 1 -4,4 h-129.2 z" fill="#eb6834"/><text x="821.2" y="123" font-size="12" fill="#0b0b0b" text-anchor="start" font-weight="normal" >1.48 M</text><text x="670" y="159" font-size="12" fill="#0b0b0b" text-anchor="end" font-weight="normal" >Code review (5 lenses)</text><path d="M680,144 h187.7 a4,4 0 0 1 4,4 v12 a4,4 0 0 1 -4,4 h-187.7 z" fill="#eb6834"/><text x="879.7" y="159" font-size="12" fill="#0b0b0b" text-anchor="start" font-weight="normal" >2.13 M</text><text x="670" y="195" font-size="12" fill="#0b0b0b" text-anchor="end" font-weight="normal" >Code review (integration)</text><path d="M680,180 h50.0 a4,4 0 0 1 4,4 v12 a4,4 0 0 1 -4,4 h-50.0 z" fill="#eb6834"/><text x="742.0" y="195" font-size="12" fill="#0b0b0b" text-anchor="start" font-weight="normal" >0.60 M</text><text x="670" y="231" font-size="12" fill="#0b0b0b" text-anchor="end" font-weight="normal" >Evidence documentation</text><path d="M680,216 h125.6 a4,4 0 0 1 4,4 v12 a4,4 0 0 1 -4,4 h-125.6 z" fill="#eb6834"/><text x="817.6" y="231" font-size="12" fill="#0b0b0b" text-anchor="start" font-weight="normal" >1.44 M</text><text x="20" y="315" font-size="12" fill="#52514e" text-anchor="start" font-weight="normal" >Agents include the verifiers. The lead agent's own work is not counted. Source: docs/CASE-STUDY.md §6.</text></svg>